<svg xmlns="http://www.w3.org/2000/svg" xmlns:xlink="http://www.w3.org/1999/xlink" width="626.951" height="637.039" viewBox="0 0 626.951 637.039">
  <defs>
    <linearGradient id="linear-gradient" x1="0.677" y1="-0.778" x2="0.526" y2="0.09" gradientUnits="objectBoundingBox">
      <stop offset="0" stop-color="#fff"/>
      <stop offset="0.992" stop-color="#e5e5e5" stop-opacity="0"/>
    </linearGradient>
  </defs>
  <g id="Group_179" data-name="Group 179" transform="translate(-344.684)">
    <path id="Path_500" data-name="Path 500" d="M963.693,329.6,808.906,507.432,710.4,492.868,905.874,337.263l-22.292,1.811L651.089,507.432H520.014l359.11-167.8-23.963,1.811L450.607,478.916l-95.892-26.374L808.906,329.6Z" transform="translate(0 129.607)" opacity="0.56" fill="url(#linear-gradient)"/>
    <g id="Group_181" data-name="Group 181" transform="translate(785.711 105.049)">
      <ellipse id="Ellipse_19" data-name="Ellipse 19" cx="92.371" cy="89.027" rx="92.371" ry="89.027" transform="translate(1.182 0)" fill="#fff"/>
      <path id="Path_501" data-name="Path 501" d="M580.6,395.386H735.387L709.473,199.22l-25.5-36.92L616.4,183.616Z" transform="translate(-557.405 -41.229)" fill="#fff"/>
      <g id="Group_180" data-name="Group 180" transform="translate(0 0.318)">
        <g id="Group_179-2" data-name="Group 179">
          <path id="Path_502" data-name="Path 502" d="M590.63,147.618c11.424-43.608,54.614-70.776,99.894-64.924a82.356,82.356,0,0,0-11.7-3.9C629.5,65.836,579.344,93.84,566.8,141.349S584.221,237.9,633.541,251a93.058,93.058,0,0,0,12.121,2.368C603.447,236.088,579.2,191.226,590.63,147.618Z" transform="translate(-563.951 -75.629)" fill="#d9e7ea"/>
        </g>
        <path id="Path_503" data-name="Path 503" d="M639.115,205.656,617.242,381.9H580.6l29.258-185.3Z" transform="translate(-557.405 -28.06)" fill="#d9e7ea"/>
        <path id="Path_504" data-name="Path 504" d="M602.229,196.6h31.208l-2.647,14.211H600Z" transform="translate(-549.776 -28.06)" fill="#d9e7ea"/>
        <path id="Path_505" data-name="Path 505" d="M642.01,207.414s-38.035-7.8-51.828-38.314L578.2,179.828l43.469,32.462Z" transform="translate(-558.348 -38.873)" fill="#d9e7ea"/>
      </g>
    </g>
    <g id="Group_188" data-name="Group 188" transform="translate(375.335 213.441)">
      <g id="Group_182" data-name="Group 182" transform="translate(0.696)">
        <path id="Path_506" data-name="Path 506" d="M341.7,188.015,697.669,186.9v31.9l-10.589.139,2.369,56.565-24.521.139.975-17.137-12.818.139v17H637.2l-.139-19.087h-11.7l.139,25.5-14.907.139-.279-68.268-268.474.836Z" transform="translate(-241.666 -139.948)" fill="#a0cfef"/>
        <path id="Path_507" data-name="Path 507" d="M340.006,153.2a64.633,64.633,0,1,0,45.846,18.783A64.716,64.716,0,0,0,340.006,153.2ZM316.6,234.564a16.53,16.53,0,1,1,11.738-4.841A16.579,16.579,0,0,1,316.6,234.564Z" transform="translate(-267.698 -153.2)" fill="#a0cfef"/>
        <path id="Path_508" data-name="Path 508" d="M337.5,187.975,693.469,187v31.766l-10.588.139,2.229,56.565-24.521.139,1.115-17.137-12.818.139v17H633l-.139-19.087h-11.7l.139,25.635H606.392l-.279-68.268-268.474.836Z" transform="translate(-243.318 -139.909)" fill="#fff"/>
        <path id="Path_509" data-name="Path 509" d="M334.406,153.2a64.633,64.633,0,1,0,45.846,18.783A64.716,64.716,0,0,0,334.406,153.2ZM311,234.564a16.53,16.53,0,1,1,11.738-4.841A16.579,16.579,0,0,1,311,234.564Z" transform="translate(-269.9 -153.2)" fill="#fff"/>
        <path id="Path_510" data-name="Path 510" d="M334.406,153.2a64.633,64.633,0,1,0,45.846,18.783A64.716,64.716,0,0,0,334.406,153.2ZM311,234.564a16.53,16.53,0,1,1,11.738-4.841A16.579,16.579,0,0,1,311,234.564Z" transform="translate(-269.9 -153.2)" fill="#fff"/>
        <path id="Path_511" data-name="Path 511" d="M594.841,187s-14.768,12.4.139,31.9C594.841,218.766,608.077,200.1,594.841,187Z" transform="translate(-144.69 -139.909)" fill="#a0cfef"/>
      </g>
      <g id="Group_183" data-name="Group 183" transform="translate(429.252 120.967)" opacity="0.11">
        <path id="Path_512" data-name="Path 512" d="M577.5,255.176a14.32,14.32,0,0,1,5.852-11.424,26.613,26.613,0,0,1,3.9-2.09,16.9,16.9,0,0,1,4.458-1.533,6.7,6.7,0,0,1,4.6.836l.418,13.654Z" transform="translate(-577.5 -240.025)" fill="#282f56"/>
      </g>
      <g id="Group_184" data-name="Group 184" transform="translate(448.972 47.541)" opacity="0.11">
        <path id="Path_514" data-name="Path 514" d="M598.266,217.663c-1.951-2.229-4.04-4.458-5.016-7.1a27.165,27.165,0,0,1-1.115-5.852c-.418-3.9-.836-7.941,0-11.842a7.389,7.389,0,0,1,2.368-4.737,3.627,3.627,0,0,1,4.876.279Z" transform="translate(-591.654 -187.323)" fill="#282f56"/>
      </g>
      <g id="Group_185" data-name="Group 185" transform="translate(37.611 61.018)" opacity="0.11">
        <path id="Path_515" data-name="Path 515" d="M319.251,197c.975-.139,2.09,2.09,2.508,5.852a22.366,22.366,0,0,1-.279,6.687,13.961,13.961,0,0,1-4.737,8.22,22.965,22.965,0,0,1-14.35,5.155c-3.9-.139-6.13-1.254-5.991-2.229,0-.975,2.229-1.672,5.294-2.786a38.438,38.438,0,0,0,5.155-2.229,27.739,27.739,0,0,0,5.434-3.483,10.711,10.711,0,0,0,3.065-4.458,55.107,55.107,0,0,0,1.533-5.434C317.579,199.231,318.275,197.141,319.251,197Z" transform="translate(-296.396 -196.996)" fill="#282f56"/>
      </g>
      <g id="Group_186" data-name="Group 186" transform="translate(239.634 51.576)" opacity="0.12">
        <path id="Path_516" data-name="Path 516" d="M445.858,190.75a18.181,18.181,0,0,1,15.883,3.622c5.294,4.458,7.941,11.842,13.932,15.186,5.712,3.065,12.678,1.672,18.669-.7s11.842-5.712,18.251-6.27,13.793,2.786,15.047,9.056c-28.143,1.672-58.1,1.115-86.241,2.786" transform="translate(-441.4 -190.219)" fill="#282f56"/>
      </g>
      <g id="Group_187" data-name="Group 187" transform="translate(0 49.321)" opacity="0.11">
        <path id="Path_517" data-name="Path 517" d="M271.629,188.6c7.663.279,10.728,5.434,14.768,11.982s5.434,14.49,5.155,22.152c-.279,4.6-.975,9.335-.418,13.932,1.393,10.171,10.589,18.809,20.759,19.505a37.964,37.964,0,0,0,9.753-.836c4.18-.7,8.22-1.254,12.4-1.951,5.852-.836,12.539-1.672,16.44,4.876a17.148,17.148,0,0,1,1.951,6.409c.279,4.04,1.393.139.279,4.04l-21.456-.557A63.793,63.793,0,0,1,269.4,210.2Z" transform="translate(-269.4 -188.6)" fill="#282f56"/>
      </g>
    </g>
    <g id="Group_209" data-name="Group 209" transform="translate(345.602 264.339)">
      <path id="Path_518" data-name="Path 518" d="M313.175,248.549a1.323,1.323,0,0,1,1.533-.557,4.185,4.185,0,0,1,1.533.836,13.647,13.647,0,0,0,15.465-.557c-4.18-1.672-8.5-3.2-12.818-4.458a5.7,5.7,0,0,0,3.9-2.508c.139-.139.279-.418.139-.557a.512.512,0,0,0-.418-.139,6.35,6.35,0,0,0-3.2.7c-2.09.836-4.18,1.811-6.27,2.647a3.043,3.043,0,0,0-.7.418,2.065,2.065,0,0,0-.139.975,20.942,20.942,0,0,1,.279,2.786" transform="translate(-222.837 -169.737)" fill="#f7d3a9"/>
      <path id="Path_519" data-name="Path 519" d="M270.793,363.479,269.4,371.7l4.319-.279,1.951-8.22Z" transform="translate(-239.667 -121.52)" fill="#dee3ff"/>
      <path id="Path_520" data-name="Path 520" d="M294.557,362.036,294,370.4l4.18-.836,1.254-8.359Z" transform="translate(-229.994 -122.307)" fill="#dee3ff"/>
      <path id="Path_521" data-name="Path 521" d="M280.119,196.3l5.573,14.908a6.341,6.341,0,0,1-3.762,8.22l-1.951.7L280.815,231l-15.186,1.115L263.4,201.32Z" transform="translate(-242.027 -187.149)" fill="#f7d3a9"/>
      <path id="Path_522" data-name="Path 522" d="M281.63,190.1s-3.065-1.951-6.827,3.065-12.539,1.672-15.325,7.941c-2.926,6.27-.7,13.654,3.2,19.227l2.786,4.319,7.8-.557s3.344-7.523,1.951-9.613c0,0-8.638-1.254-5.991-5.852s6.827,1.951,6.827,1.951l2.229-.279-2.647-8.638s7.663-1.533,8.638-6.27c.7-5.015-2.641-5.294-2.641-5.294Z" transform="translate(-244.095 -189.732)" fill="#343b73"/>
      <path id="Path_523" data-name="Path 523" d="M255.9,286.834l19.644,46.116a27.923,27.923,0,0,1,2.09,13.514l-5.016,57.958,10.449-.7s14.211-51.967,14.35-65.2c0-6.27-7.384-33.3-7.384-33.3s12.4,20.48,12.539,31.766,4.458,65.064,4.458,65.064l8.359-.557s13.793-58.1.557-90.7c-11.564-28.561-17.555-45.7-17.555-45.7Z" transform="translate(-244.976 -160.096)" fill="#343b73"/>
      <path id="Path_524" data-name="Path 524" d="M270.547,217.4a35.51,35.51,0,0,0-22.431,32.044c-.975,24.8,10.867,56.286,10.867,56.286l43.19-16.719-1.254-13.654-7.663-46.812a6.713,6.713,0,0,0-4.458-5.155Z" transform="translate(-248.059 -178.852)" fill="#d8f6ff"/>
      <g id="Group_189" data-name="Group 189" transform="translate(39.346 47.325)">
        <path id="Path_525" data-name="Path 525" d="M285.635,284.863a.814.814,0,0,1-.139-.557c-.139-.557-.139-1.115-.279-1.811-.279-1.811-.7-4.04-1.115-6.548-.975-5.991-2.09-13.375-3.344-21.6s-2.368-15.6-3.2-21.6c-.279-2.508-.7-4.737-.975-6.548-.139-.7-.139-1.254-.279-1.811v-.7a.814.814,0,0,1,.139.557c.139.557.139,1.115.279,1.811.279,1.811.7,4.04,1.115,6.548.975,5.852,2.09,13.375,3.344,21.6s2.368,15.6,3.2,21.595c.279,2.508.7,4.737.975,6.548.139.7.139,1.254.279,1.811Z" transform="translate(-276.3 -223.7)" fill="#a0ced8"/>
      </g>
      <path id="Path_526" data-name="Path 526" d="M265.262,217.4l16.3,4.458L281,226.316,261.5,219.072Z" transform="translate(-242.774 -178.852)" fill="#a0ced8"/>
      <path id="Path_527" data-name="Path 527" d="M275.839,221.386l3.065,4.18-.139-3.483L275.7,218.6Z" transform="translate(-237.19 -178.38)" fill="#a0ced8"/>
      <path id="Path_528" data-name="Path 528" d="M276.057,220.7l-.557,4.319,2.926,3.9.418-4.458-2.508-3.483" transform="translate(-237.269 -177.555)" fill="#c44"/>
      <path id="Path_529" data-name="Path 529" d="M285.833,226.672s4.458,29.4-8.359,34.831-17.555,6.409-17.555,6.409l-4.319,8.22,10.31,1.533s29.954-7.105,28.561-26.193C293.078,232.523,286.39,225,286.39,225Z" transform="translate(-245.094 -175.864)" fill="#c44"/>
      <path id="Path_530" data-name="Path 530" d="M256.9,242.409l39.568,18.809,38.592-2.786-.836-10.728-31.626-.418L266.1,223.6" transform="translate(-244.583 -176.414)" fill="#d8f6ff"/>
      <g id="Group_190" data-name="Group 190" transform="translate(12.457 67.666)">
        <path id="Path_531" data-name="Path 531" d="M257,238.3s.557.279,1.533.7,2.369,1.115,4.18,1.951c3.483,1.533,8.5,3.483,14.072,5.573s10.589,4.18,14.072,5.852q2.717,1.254,4.18,2.09c.975.557,1.393.836,1.393.836s-.557-.279-1.533-.7-2.368-1.115-4.18-1.951c-3.483-1.533-8.5-3.483-14.072-5.573s-10.589-4.18-14.072-5.852q-2.717-1.254-4.18-2.09C257.557,238.718,257,238.439,257,238.3Z" transform="translate(-257 -238.3)" fill="#a0ced8"/>
      </g>
      <g id="Group_191" data-name="Group 191" transform="translate(26.528 50.215)">
        <path id="Path_532" data-name="Path 532" d="M296.776,245.594a10.949,10.949,0,0,1-1.254-.557c-.836-.418-1.951-1.115-3.344-1.951-2.786-1.672-6.409-4.18-10.449-7.1s-7.663-5.434-10.31-7.245c-1.115-.7-2.229-1.393-3.2-2.09-.7-.418-1.115-.7-1.115-.836s.418.139,1.254.557,1.951,1.115,3.344,1.951c2.786,1.672,6.409,4.18,10.449,7.1s7.663,5.434,10.31,7.245c1.115.7,2.229,1.393,3.2,2.09C296.358,245.315,296.776,245.594,296.776,245.594Z" transform="translate(-267.1 -225.774)" fill="#a0ced8"/>
      </g>
      <g id="Group_192" data-name="Group 192" transform="translate(83.26 71.288)">
        <path id="Path_533" data-name="Path 533" d="M309.325,251.906a31.486,31.486,0,0,1-.975-5.434c-.418-3.065-.7-5.573-.418-5.573a31.493,31.493,0,0,1,.975,5.434A26.464,26.464,0,0,1,309.325,251.906Z" transform="translate(-307.819 -240.9)" fill="#a0ced8"/>
      </g>
      <g id="Group_193" data-name="Group 193" transform="translate(84.765 77.924)">
        <path id="Path_534" data-name="Path 534" d="M314.334,245.715a5.711,5.711,0,0,1-2.647.975,6.377,6.377,0,0,1-2.786.139,9.784,9.784,0,0,1,2.647-.7,6.609,6.609,0,0,1,2.786-.414Z" transform="translate(-308.9 -245.662)" fill="#a0ced8"/>
      </g>
      <path id="Path_535" data-name="Path 535" d="M269.687,369.479a9.04,9.04,0,0,0-.975,4.6l22.57-1.672s1.951-4.6-17.137-3.344Z" transform="translate(-239.954 -119.301)" fill="#343b73"/>
      <path id="Path_536" data-name="Path 536" d="M294.287,367.62a9.04,9.04,0,0,0-.975,4.6l23.963-1.672s.7-4.18-18.669-3.2Z" transform="translate(-230.281 -119.95)" fill="#343b73"/>
      <g id="Group_194" data-name="Group 194" transform="translate(36.678 248.62)">
        <path id="Path_537" data-name="Path 537" d="M278.028,368.207c.139.139-.836.7-1.811,1.672-.975.836-1.672,1.672-1.811,1.533s.418-1.115,1.533-1.951c.835-.975,1.95-1.393,2.089-1.254Z" transform="translate(-274.385 -368.181)" fill="#222742"/>
      </g>
      <g id="Group_195" data-name="Group 195" transform="translate(38.632 249.037)">
        <path id="Path_538" data-name="Path 538" d="M279.288,368.508c.139.139-.7.7-1.672,1.533-.975.7-1.811,1.393-1.811,1.254-.139-.139.557-.975,1.533-1.811.975-.7,1.95-1.116,1.95-.976Z" transform="translate(-275.787 -368.481)" fill="#222742"/>
      </g>
      <g id="Group_196" data-name="Group 196" transform="translate(40.997 249.028)">
        <path id="Path_539" data-name="Path 539" d="M281.128,368.51a14.291,14.291,0,0,1-1.811,1.254c-.975.7-1.672,1.393-1.811,1.254s.418-.975,1.533-1.811a3.98,3.98,0,0,1,2.089-.7Z" transform="translate(-277.485 -368.474)" fill="#222742"/>
      </g>
      <g id="Group_197" data-name="Group 197" transform="translate(33.612 246.528)">
        <path id="Path_540" data-name="Path 540" d="M275.271,371.027a6.067,6.067,0,0,1-.418-2.508,2.07,2.07,0,0,1,.279-1.254,1.088,1.088,0,0,1,.557-.557.686.686,0,0,1,.836.557,5.989,5.989,0,0,1-.279,1.672l-.279.836-.139.418a.431.431,0,0,1-.139.279c-.139.139-.279.279-.418.139a6.962,6.962,0,0,1-2.926-1.811c-.139-.279-.279-.7,0-.975s.557-.418.836-.279a1.445,1.445,0,0,1,1.115.836,3.956,3.956,0,0,1,.7,2.369,4.026,4.026,0,0,0-.975-2.229,1.146,1.146,0,0,0-.836-.557c-.418,0-.557.279-.279.557a7.585,7.585,0,0,0,2.508,1.533c-.139.279,0-.279.139-.418l.279-.836a8.016,8.016,0,0,0,.279-1.393c0-.418-.279-.139-.557.139a2.624,2.624,0,0,0-.279,1.115,11.339,11.339,0,0,0,0,2.367Z" transform="translate(-272.185 -366.68)" fill="#222742"/>
      </g>
      <g id="Group_198" data-name="Group 198" transform="translate(71.358 245.72)">
        <path id="Path_541" data-name="Path 541" d="M302.792,366.239a.136.136,0,0,1,.139-.139l.139.139a20.657,20.657,0,0,0-1.951,1.533c-1.115.975-1.672,2.09-1.811,1.95a3.115,3.115,0,0,1,1.393-2.368,4.8,4.8,0,0,1,2.368-1.254l.139.139Z" transform="translate(-299.277 -366.1)" fill="#222742"/>
      </g>
      <g id="Group_199" data-name="Group 199" transform="translate(73.308 246.208)">
        <path id="Path_542" data-name="Path 542" d="M304.053,366.519c0,.139-.975.557-1.811,1.254-.975.836-1.393,1.672-1.533,1.533-.139,0,.139-1.115,1.254-2.09a2.266,2.266,0,0,1,2.09-.7Z" transform="translate(-300.676 -366.45)" fill="#222742"/>
      </g>
      <g id="Group_200" data-name="Group 200" transform="translate(75.265 246.507)">
        <path id="Path_543" data-name="Path 543" d="M305.173,366.714a6.791,6.791,0,0,1-1.533,1.115c-.836.557-1.393,1.254-1.533,1.254s.279-.975,1.115-1.672C304.2,366.714,305.173,366.574,305.173,366.714Z" transform="translate(-302.081 -366.665)" fill="#222742"/>
      </g>
      <g id="Group_201" data-name="Group 201" transform="translate(67.663 244.305)">
        <path id="Path_544" data-name="Path 544" d="M299.655,368.868a1.04,1.04,0,0,1-.418-.418,5.742,5.742,0,0,1-.139-1.672,3.069,3.069,0,0,1,.139-1.115c.139-.139.139-.557.557-.557.418-.139.7.418.7.7a2.849,2.849,0,0,1,0,1.533c0,.279-.139.557-.139.836,0,.139-.139.279-.139.418a.724.724,0,0,1-.557.279,5.987,5.987,0,0,1-1.672-.279,2.223,2.223,0,0,1-1.254-.975.877.877,0,0,1,0-.836c0-.279.557-.279.557-.139l.279.139a5.9,5.9,0,0,1,.975.7c.975.975,1.393,1.811,1.254,1.811s-.557-.7-1.533-1.533c-.279-.139-.557-.418-.836-.557l-.279-.139v-.139h.139a.688.688,0,0,0,.139.418c.279.7,1.533.975,2.229,1.115.139.139.279-.7.418-.975V366.09c0-.279-.139-.279-.139-.279-.139,0-.139.139-.139.279a2.716,2.716,0,0,0-.139,1.115,7.5,7.5,0,0,0-.139,1.533c0-.149.136-.009.136.13Z" transform="translate(-296.625 -365.084)" fill="#222742"/>
      </g>
      <g id="Group_202" data-name="Group 202" transform="translate(27.504 238.857)">
        <path id="Path_545" data-name="Path 545" d="M279.085,361.21a27.566,27.566,0,0,1-5.573,1.115,22.868,22.868,0,0,1-5.712.557,27.563,27.563,0,0,1,5.573-1.115A37.05,37.05,0,0,1,279.085,361.21Z" transform="translate(-267.8 -361.174)" fill="#222742"/>
      </g>
      <g id="Group_203" data-name="Group 203" transform="translate(60.384 237.721)">
        <path id="Path_546" data-name="Path 546" d="M303.1,360.416a40.221,40.221,0,0,1-5.852.7,27.854,27.854,0,0,1-5.852.139,40.216,40.216,0,0,1,5.852-.7A46.945,46.945,0,0,1,303.1,360.416Z" transform="translate(-291.4 -360.359)" fill="#222742"/>
      </g>
      <g id="Group_204" data-name="Group 204" transform="translate(18.022 128.267)">
        <path id="Path_547" data-name="Path 547" d="M262.813,281.8c.139-.139,1.393,2.926.836,6.687a12.129,12.129,0,0,1-2.647,6.27,21.556,21.556,0,0,0,2.09-6.409A20.945,20.945,0,0,0,262.813,281.8Z" transform="translate(-260.995 -281.797)" fill="#222742"/>
      </g>
      <g id="Group_205" data-name="Group 205" transform="translate(49.342 114.474)">
        <path id="Path_548" data-name="Path 548" d="M295.074,282.768a11.437,11.437,0,0,1-2.368-.7,17.1,17.1,0,0,1-4.876-3.2,18.488,18.488,0,0,1-3.483-4.737c-.7-1.393-.975-2.229-.836-2.229.139-.139,1.533,3.344,4.737,6.548a24.666,24.666,0,0,0,6.826,4.318Z" transform="translate(-283.475 -271.897)" fill="#222742"/>
      </g>
      <g id="Group_206" data-name="Group 206" transform="translate(36.113 120.609)">
        <path id="Path_549" data-name="Path 549" d="M284.6,294.83a28.582,28.582,0,0,1-2.786,1.672l-.139.139-.139-.139a70.716,70.716,0,0,1-3.9-8.359c-1.254-3.2-2.368-6.13-2.926-8.22-.279-1.115-.557-1.951-.7-2.647a.916.916,0,0,1,.279-.975,1.669,1.669,0,0,0,0,.975c.139.557.557,1.393.836,2.508.7,2.09,1.811,5.016,3.2,8.22,1.393,3.344,2.786,6.27,3.762,8.359l-.279-.139a20.383,20.383,0,0,1,2.792-1.394Z" transform="translate(-273.98 -276.3)" fill="#222742"/>
      </g>
      <g id="Group_207" data-name="Group 207" transform="translate(44.919 120.887)">
        <path id="Path_550" data-name="Path 550" d="M301.616,393.809v-4.876c0-3.344.139-7.8.279-13.236.279-11.285.557-26.611.975-43.469a75.07,75.07,0,0,0-4.458-23.267,116.413,116.413,0,0,0-8.22-17.555,120.5,120.5,0,0,0-7.105-11.006q-1.254-1.672-2.09-2.926a6.808,6.808,0,0,1-.7-.975s.279.279.836.975,1.254,1.533,2.229,2.786a116.362,116.362,0,0,1,7.245,11.006,105.677,105.677,0,0,1,8.359,17.694,72.817,72.817,0,0,1,4.6,23.406c-.418,16.858-.836,32.044-1.115,43.469-.139,5.434-.279,9.892-.418,13.1,0,1.393-.139,2.647-.139,3.622a9.185,9.185,0,0,1-.278,1.252Z" transform="translate(-280.3 -276.5)" fill="#222742"/>
      </g>
      <g id="Group_208" data-name="Group 208" transform="translate(26.807 127.714)">
        <path id="Path_551" data-name="Path 551" d="M273.709,393.972a6.31,6.31,0,0,1,.139-1.115c.139-.975.418-2.09.7-3.344.7-3.065,1.533-7.245,2.647-12.26q1.908-9.12,3.762-18.251c.7-3.483,1.393-7.1,2.09-10.728a105.033,105.033,0,0,0,1.672-11.564c.139-8.081-1.672-15.6-3.622-22.292A151.259,151.259,0,0,0,274.684,297c-2.09-4.876-3.9-8.777-5.294-11.424-.557-1.254-1.115-2.229-1.533-3.065a6.352,6.352,0,0,1-.557-1.115,3.09,3.09,0,0,1,.557.975c.418.836.975,1.811,1.672,3.065,1.393,2.647,3.344,6.409,5.434,11.285a180.3,180.3,0,0,1,6.548,17.415c1.951,6.687,3.762,14.35,3.622,22.431a102.868,102.868,0,0,1-1.672,11.7q-.988,5.375-2.09,10.728c-1.393,6.827-2.786,12.957-3.9,18.251-1.115,5.016-2.09,9.056-2.786,12.26q-.418,1.881-.836,3.344a3.855,3.855,0,0,1-.14,1.122Z" transform="translate(-267.3 -281.4)" fill="#222742"/>
      </g>
      <path id="Path_552" data-name="Path 552" d="M257,238.3s2.786,22.292,37.756,18.809l.975-.139-.279-3.2Z" transform="translate(-244.543 -170.634)" fill="#343b73" opacity="0.14"/>
      <path id="Path_553" data-name="Path 553" d="M255.6,265.121l8.638,2.368a13.584,13.584,0,0,0,6.688,0c5.991-1.672,17.555-5.991,19.505-14.49-6.13,7.1-14.768,11.006-24.521,13.793Z" transform="translate(-245.094 -164.854)" fill="#343b73" opacity="0.14"/>
      <path id="Path_554" data-name="Path 554" d="M278.147,277.354a1.325,1.325,0,1,1-1.393-1.254,1.481,1.481,0,0,1,1.393,1.254Z" transform="translate(-237.269 -155.77)" fill="#222742"/>
    </g>
    <g id="Group_230" data-name="Group 230" transform="translate(813.503 244.098)">
      <path id="Path_555" data-name="Path 555" d="M592.5,254.909a7.146,7.146,0,0,1,2.647-4.04A21.419,21.419,0,0,0,592.5,248.5" transform="translate(-580.518 -146.382)" fill="#f7d3a9"/>
      <g id="Group_229" data-name="Group 229">
        <path id="Path_556" data-name="Path 556" d="M596.16,247.975c-1.115.7-2.508,0-3.762-.418a9.609,9.609,0,0,0-4.876-.418.838.838,0,0,0-.557.139c-.557.418-.139,1.254.418,1.533s1.254.279,1.951.557c.139.139.279.139.279.279.139.279-.279.7-.557.836a20.563,20.563,0,0,0-4.6,4.6,2.8,2.8,0,0,0-.557,1.115,1.267,1.267,0,0,0,.557,1.115c.836.418,2.09-1.533,3.065-1.254a16.436,16.436,0,0,0-.557,2.786c0,.279,0,.7.279.836a.512.512,0,0,0,.418-.139c.7-.418,1.533-1.811,2.229-2.368.279.557-.139,2.229,0,2.786,0,.557.557,1.393,1.115,1.254.836-.139.836-2.09,1.393-2.786.557-.418,0,1.254.418,2.647,0,0,.975,1.393,1.951-1.533a36.669,36.669,0,0,0,1.254-4.458" transform="translate(-583.9 -146.972)" fill="#f7d3a9"/>
        <path id="Path_557" data-name="Path 557" d="M597.768,204.454a46.8,46.8,0,0,1-3.622-7.523c-.139-.418-.279-.836,0-1.115s.7,0,.975.279.557.7.836.7a8.4,8.4,0,0,0-.139-3.2c-.139-1.115.139-2.368.975-2.786.836,1.811,1.532,3.622,2.229,5.434a29.146,29.146,0,0,1-.139-3.483,2.373,2.373,0,0,1,.139-.975.509.509,0,0,1,.7-.279c.279.139.279.557.279.975.139,4.04.7,8.359,2.508,11.842a1.528,1.528,0,0,0-1.672-.418c-.836.139-1.951.418-3.065.557" transform="translate(-579.934 -169.071)" fill="#f7d3a9"/>
        <g id="Group_214" data-name="Group 214" transform="translate(41.641 212.601)">
          <path id="Path_558" data-name="Path 558" d="M629.976,327.939l1.811,8.081-4.319-.139L625.1,327.8Z" transform="translate(-609.34 -327.8)" fill="#dee3ff"/>
          <path id="Path_559" data-name="Path 559" d="M636.1,333.5a9.573,9.573,0,0,1,1.672,4.458L613.8,339.63s-1.254-4.04,17.973-5.852Z" transform="translate(-613.788 -325.559)" fill="#343b73"/>
          <g id="Group_210" data-name="Group 210" transform="translate(11.163 7.601)">
            <path id="Path_560" data-name="Path 560" d="M622.079,333.317a3.821,3.821,0,0,1,2.368.836c1.393.836,1.811,2.09,1.672,2.229s-.836-.975-2.09-1.672c-.975-.7-1.951-.975-2.229-1.254l.279-.139Z" transform="translate(-621.8 -333.256)" fill="#222742"/>
          </g>
          <g id="Group_211" data-name="Group 211" transform="translate(9.63 8.147)">
            <path id="Path_561" data-name="Path 561" d="M620.7,333.721c0-.139,1.115-.139,2.368.557,1.115.7,1.672,1.811,1.533,1.811-.139.139-.7-.7-1.811-1.393C621.675,334.138,620.7,334,620.7,333.721Z" transform="translate(-620.7 -333.648)" fill="#222742"/>
          </g>
          <g id="Group_212" data-name="Group 212" transform="translate(7.958 8.7)">
            <path id="Path_562" data-name="Path 562" d="M619.5,334.122c0-.139.975-.139,1.951.418s1.533,1.393,1.393,1.533-.7-.418-1.672-.975c-.836-.558-1.672-.7-1.672-.976Z" transform="translate(-619.5 -334.044)" fill="#222742"/>
          </g>
          <g id="Group_213" data-name="Group 213" transform="translate(14.088 5.434)">
            <path id="Path_563" data-name="Path 563" d="M625.572,335.462a1.389,1.389,0,0,1,.139-.557,9.1,9.1,0,0,0-.279-1.533c-.139-.279-.279-.7-.418-.975-.139-.139-.139-.279-.279-.279v.279a5.229,5.229,0,0,0,.139,1.393c.139.418.418,1.115.557.975.7-.279,1.951-.7,2.09-1.393v-.418l-.279.139c-.279.279-.557.418-.836.7a5.228,5.228,0,0,0-1.254,1.811,5.055,5.055,0,0,1,.975-2.09l.836-.836.279-.139c0-.139.557-.139.557.139a.877.877,0,0,1,0,.836,1.978,1.978,0,0,1-1.115,1.254,4.991,4.991,0,0,1-1.533.557,1.057,1.057,0,0,1-.557-.279c-.139-.139-.139-.279-.279-.418-.139-.279-.139-.557-.279-.7a5.713,5.713,0,0,1-.139-1.533c0-.139.139-.7.557-.7s.557.279.7.557a4.306,4.306,0,0,1,.279,1.115,3.67,3.67,0,0,1,.139,1.672c.278.283.139.423,0,.423Z" transform="translate(-623.9 -331.7)" fill="#222742"/>
          </g>
        </g>
        <g id="Group_219" data-name="Group 219" transform="translate(68.391 210.232)">
          <path id="Path_564" data-name="Path 564" d="M649.216,326.239l1.672,8.081-4.319-.139L644.2,326.1Z" transform="translate(-628.579 -326.1)" fill="#dee3ff"/>
          <path id="Path_565" data-name="Path 565" d="M655.3,331.8a9.573,9.573,0,0,1,1.672,4.458L633,337.93s-1.254-4.04,17.973-5.852Z" transform="translate(-632.988 -323.859)" fill="#343b73"/>
          <g id="Group_215" data-name="Group 215" transform="translate(11.023 7.558)">
            <path id="Path_566" data-name="Path 566" d="M641.179,331.629a3.821,3.821,0,0,1,2.368.836c1.393.836,1.811,2.09,1.672,2.229s-.836-.975-2.09-1.672c-.975-.7-1.951-.975-2.229-1.254l.279-.139Z" transform="translate(-640.9 -331.525)" fill="#222742"/>
          </g>
          <g id="Group_216" data-name="Group 216" transform="translate(9.491 8.147)">
            <path id="Path_567" data-name="Path 567" d="M639.8,332.021c0-.139,1.115-.139,2.368.557,1.115.7,1.672,1.811,1.533,1.811-.139.139-.7-.7-1.811-1.393a16.323,16.323,0,0,1-2.09-.975Z" transform="translate(-639.8 -331.948)" fill="#222742"/>
          </g>
          <g id="Group_217" data-name="Group 217" transform="translate(7.819 8.7)">
            <path id="Path_568" data-name="Path 568" d="M638.6,332.422c0-.139.975-.139,1.951.418s1.533,1.393,1.393,1.533-.7-.418-1.672-.975c-.836-.558-1.672-.837-1.672-.976Z" transform="translate(-638.6 -332.344)" fill="#222742"/>
          </g>
          <g id="Group_218" data-name="Group 218" transform="translate(14.088 5.434)">
            <path id="Path_569" data-name="Path 569" d="M644.772,333.762a1.39,1.39,0,0,1,.139-.557,9.089,9.089,0,0,0-.279-1.533c-.139-.279-.279-.7-.418-.975-.139-.139-.139-.279-.279-.279v.279a5.224,5.224,0,0,0,.139,1.393c.139.418.418,1.115.557.975.7-.279,1.951-.7,2.09-1.393v-.418l-.279.139c-.279.279-.557.418-.836.7a5.23,5.23,0,0,0-1.254,1.811,5.055,5.055,0,0,1,.975-2.09l.836-.836.279-.139c0-.139.557-.139.557.139a.877.877,0,0,1,0,.836,1.977,1.977,0,0,1-1.115,1.254,4.989,4.989,0,0,1-1.532.557,1.058,1.058,0,0,1-.557-.279c-.139-.139-.139-.279-.279-.418-.139-.279-.139-.557-.279-.7a5.716,5.716,0,0,1-.139-1.533c0-.139.139-.7.557-.7s.557.279.7.557a4.306,4.306,0,0,1,.279,1.115,3.668,3.668,0,0,1,.139,1.672c.138.283,0,.423,0,.423Z" transform="translate(-643.1 -330)" fill="#222742"/>
          </g>
        </g>
        <path id="Path_570" data-name="Path 570" d="M641.551,195.887s17-5.294,25.217,28c8.22,33.159,3.065,42.493,3.065,42.493L627.2,261.09s5.852-17.415,4.18-28.143-8.081-31.069-8.081-31.069S632.635,194.633,641.551,195.887Z" transform="translate(-568.407 -167.192)" fill="#343b73"/>
        <path id="Path_571" data-name="Path 571" d="M595.6,201.126s10.728,36.642,24.381,29.4,31.348-21.456,31.348-21.456L636.143,198.2s-17,20.62-20.9,17.415c-3.762-3.2-12.678-15.047-12.678-15.047Z" transform="translate(-579.299 -166.161)" fill="#343b73"/>
        <path id="Path_572" data-name="Path 572" d="M628.986,198.2,613.8,230.1l20.341-13.514-.836-16.022Z" transform="translate(-572.143 -166.161)" fill="#282f56" opacity="0.35"/>
        <path id="Path_573" data-name="Path 573" d="M641.827,239.9s-34.134,38.871-36.781,50.713c-2.647,11.7,27.725,76.209,27.725,76.209l7.523-.557s-16.44-62.416-14.768-69.661,18.391-27.586,18.391-27.586-11.424,22.152-7.1,42.772c4.737,22.57,22.013,50.017,22.013,50.017l7.1-.557s-16.44-55.729-9.892-67.85c6.827-12.818,21.595-44.583,21.595-44.583Z" transform="translate(-575.649 -149.764)" fill="#343b73"/>
        <g id="Group_220" data-name="Group 220" transform="translate(67.981 100.585)">
          <path id="Path_574" data-name="Path 574" d="M650.954,247.4a10.255,10.255,0,0,0-.279,1.115c-.279.836-.7,1.811-1.115,3.065q-1.672,4.389-4.18,11.285c-1.811,4.876-3.9,10.449-6.13,16.579-1.115,3.2-2.368,6.409-3.622,9.753a33.1,33.1,0,0,0-1.533,5.294c-.279,1.811-.557,3.762-.7,5.573-.139,7.663,1.393,14.908,3.065,21.316a144.465,144.465,0,0,0,5.712,16.719c1.811,4.737,3.483,8.359,4.737,11.006.557,1.115.975,2.09,1.393,2.926.279.7.418.975.418.975a3.091,3.091,0,0,1-.557-.975,30.731,30.731,0,0,0-1.533-2.926c-1.254-2.508-2.926-6.27-4.876-10.867a152.429,152.429,0,0,1-5.852-16.719,74.509,74.509,0,0,1-3.2-21.456,37.659,37.659,0,0,1,.7-5.712,33.449,33.449,0,0,1,1.672-5.294c1.254-3.344,2.508-6.687,3.762-9.753,2.368-6.13,4.458-11.842,6.27-16.579,1.811-4.6,3.2-8.359,4.319-11.146.418-1.115.836-2.229,1.254-3.065a1.628,1.628,0,0,1,.275-1.114Z" transform="translate(-632.694 -247.4)" fill="#222742"/>
        </g>
        <g id="Group_221" data-name="Group 221" transform="translate(37.715 101.7)">
          <path id="Path_575" data-name="Path 575" d="M641.245,248.2s-.279.279-.836.975c-.7.7-1.533,1.672-2.508,2.786-2.09,2.368-5.294,5.852-8.917,10.31a199.71,199.71,0,0,0-12.4,15.883c-.975,1.533-2.09,3.2-3.065,4.876a14.921,14.921,0,0,0-2.09,5.573c-.7,4.04-.139,8.359.557,12.678a149.051,149.051,0,0,0,6.688,23.685c2.508,7.105,5.016,13.514,7.245,18.809s4.04,9.613,5.294,12.539c.557,1.393,1.115,2.508,1.532,3.344a5.722,5.722,0,0,0,.557,1.254,6.639,6.639,0,0,1-.557-1.115c-.418-.975-.975-1.951-1.532-3.344-1.393-2.926-3.2-7.105-5.434-12.4s-4.737-11.7-7.245-18.809a150.9,150.9,0,0,1-6.687-23.824c-.7-4.319-1.254-8.638-.557-12.818a15.8,15.8,0,0,1,2.229-5.712c.975-1.811,2.09-3.344,3.065-5.016a176.271,176.271,0,0,1,12.539-15.883c3.762-4.319,6.827-7.8,9.056-10.171q1.206-1.368,2.508-2.647a1.557,1.557,0,0,1,.558-.973Z" transform="translate(-610.97 -248.2)" fill="#222742"/>
        </g>
        <g id="Group_222" data-name="Group 222" transform="translate(55.729 214.168)">
          <path id="Path_576" data-name="Path 576" d="M631.981,329.029a15.283,15.283,0,0,1-4.04.557,16.265,16.265,0,0,1-4.04,0,15.284,15.284,0,0,1,4.04-.557,16.253,16.253,0,0,1,4.04,0Z" transform="translate(-623.9 -328.925)" fill="#222742"/>
        </g>
        <g id="Group_223" data-name="Group 223" transform="translate(80.807 207.27)">
          <path id="Path_577" data-name="Path 577" d="M651.235,324.01a17.538,17.538,0,0,1-4.6,1.115,23.514,23.514,0,0,1-4.737.557,17.535,17.535,0,0,1,4.6-1.115A25.545,25.545,0,0,1,651.235,324.01Z" transform="translate(-641.9 -323.974)" fill="#222742"/>
        </g>
        <g id="Group_224" data-name="Group 224" transform="translate(90.883 98.491)">
          <path id="Path_578" data-name="Path 578" d="M653.546,259.555a2.551,2.551,0,0,1-2.229-.836,9.2,9.2,0,0,1-2.09-5.155,11.936,11.936,0,0,1,1.533-7.663,17.1,17.1,0,0,0-.975,7.523,10.522,10.522,0,0,0,1.811,5.016,3.822,3.822,0,0,0,1.95,1.115Z" transform="translate(-649.132 -245.897)" fill="#222742"/>
        </g>
        <g id="Group_225" data-name="Group 225" transform="translate(57.68 94.033)">
          <path id="Path_579" data-name="Path 579" d="M641.043,242.7a7.511,7.511,0,0,1-1.532,2.09,16.554,16.554,0,0,1-5.294,3.483,13.894,13.894,0,0,1-6.27,1.115c-1.672,0-2.647-.279-2.647-.418a21.482,21.482,0,0,0,8.638-1.254C638.536,245.906,640.9,242.562,641.043,242.7Z" transform="translate(-625.3 -242.697)" fill="#222742"/>
        </g>
        <g id="Group_226" data-name="Group 226" transform="translate(71.042 94.037)">
          <path id="Path_580" data-name="Path 580" d="M642.427,242.7a19.077,19.077,0,0,1-.975,2.229,50.369,50.369,0,0,1-2.786,5.155,49.618,49.618,0,0,1-3.2,4.876c-.279.557.279.975.557,1.254a1.524,1.524,0,0,1,.557.279,2.439,2.439,0,0,1-.7-.139,1.273,1.273,0,0,1-.7-.418.843.843,0,0,1-.139-1.115c.836-1.393,1.951-3.065,3.065-5.016C640.616,245.9,642.288,242.7,642.427,242.7Z" transform="translate(-634.891 -242.7)" fill="#222742"/>
        </g>
        <path id="Path_581" data-name="Path 581" d="M642.136,243.7a1.73,1.73,0,0,0-.836,1.115c0,.418.418.975.836.836.139,0,.279-.139.418-.279a1.291,1.291,0,0,0-.418-1.672" transform="translate(-561.329 -148.27)" fill="#222742"/>
        <path id="Path_582" data-name="Path 582" d="M629.175,242.8l39.289,4.876-1.95,4.04-38.314-7.8Z" transform="translate(-566.48 -148.623)" fill="#282f56" opacity="0.35"/>
        <g id="Group_227" data-name="Group 227" transform="translate(31.868)">
          <path id="Path_583" data-name="Path 583" d="M611.2,187.659l6.827,14.35a6.358,6.358,0,0,0,8.5,3.065l1.951-.836,7.245,8.22,11.424-10.031L626.665,179.3Z" transform="translate(-605.033 -173.593)" fill="#f7d3a9"/>
          <path id="Path_584" data-name="Path 584" d="M607.368,183.836s.7-3.622,6.966-2.786c6.13.836,9.892-7.8,16.44-5.434s10.171,9.056,11.424,15.743l1.254,5.016L637.6,201.53s-7.8-2.926-8.22-5.434c0,0,5.155-6.966,0-8.359s-3.344,6.13-3.344,6.13l-1.811,1.393-4.319-7.941s-6.409,4.458-10.589,1.811-1.949-5.294-1.949-5.294Z" transform="translate(-606.774 -175.204)" fill="#343b73"/>
        </g>
        <path id="Path_585" data-name="Path 585" d="M628.818,209.107c.139-.557-.418-5.573-.418-5.573l9.892-9.335,5.016,2.368" transform="translate(-566.401 -167.734)" fill="#a0ced8"/>
        <path id="Line_9" data-name="Line 9" d="M14.629,0,0,12.4" transform="translate(62.417 28.974)" fill="#a0ced8"/>
        <path id="Path_586" data-name="Path 586" d="M628.768,221.716,626.4,200.4l3.762,3.9-1.254,18.251" transform="translate(-567.188 -165.296)" fill="#a0ced8"/>
        <path id="Path_587" data-name="Path 587" d="M628.757,202.6l3.9,12.121-4.458,9.2Z" transform="translate(-566.48 -164.431)" fill="#222742"/>
        <path id="Path_588" data-name="Path 588" d="M629.24,224.085,625.2,208.9l1.672-8.5Z" transform="translate(-567.66 -165.296)" fill="#222742"/>
        <path id="Path_589" data-name="Path 589" d="M626.857,200.4l2.647,3.065-.139,6.13-2.229-1.533-.836-6.827" transform="translate(-567.227 -165.296)" fill="#c44"/>
        <path id="Path_591" data-name="Path 591" d="M637.237,206.5s2.926,30.651-10.31,30.93-15.465-2.508-15.465-2.508L603.8,239.1l4.18,8.081s17.973,5.991,28.979-1.115c18.112-11.7,1.393-38.871,1.393-38.871Z" transform="translate(-576.075 -162.897)" fill="#c44"/>
        <path id="Path_592" data-name="Path 592" d="M650.73,212.9c-1.254.557-59.63,47.927-59.63,47.927l4.876,5.016s52.107-29.954,56.008-36.5S650.73,212.9,650.73,212.9Z" transform="translate(-581.069 -160.381)" fill="#343b73"/>
        <g id="Group_228" data-name="Group 228" transform="translate(61.859 51.535)">
          <path id="Path_593" data-name="Path 593" d="M634.151,232.4s.557-.279,1.672-.975a49.132,49.132,0,0,0,4.6-2.647,70.625,70.625,0,0,0,6.27-4.6,11.725,11.725,0,0,0,3.065-3.344,4.28,4.28,0,0,0,.279-4.458,7.043,7.043,0,0,0-3.9-2.647,12.849,12.849,0,0,0-4.458-.975c-2.926-.139-5.294,1.254-7.245,2.368-1.672.975-3.065,1.951-4.458,2.786-1.115.7-1.672.975-1.672.975s.557-.418,1.533-1.115c1.254-.836,2.786-1.951,4.458-3.065,1.811-1.115,4.319-2.647,7.523-2.508a13.6,13.6,0,0,1,4.6.975,7.966,7.966,0,0,1,4.18,2.926,4.951,4.951,0,0,1-.279,5.016,12.283,12.283,0,0,1-3.2,3.344,40.043,40.043,0,0,1-6.409,4.6q-2.332,1.323-4.737,2.508a9.6,9.6,0,0,1-1.393.557c-.289.279-.429.279-.429.279Z" transform="translate(-628.3 -212.194)" fill="#222742"/>
        </g>
        <path id="Path_594" data-name="Path 594" d="M625.66,231.472c1.115,1.533-.7,4.737-4.04,6.966s-6.966,2.786-7.941,1.254.7-4.737,4.04-6.966C621.062,230.357,624.545,229.8,625.66,231.472Z" transform="translate(-572.299 -153.457)" fill="#222742"/>
        <path id="Path_595" data-name="Path 595" d="M627.7,244.035s24.381-14.629,22.849-25.635l-22.431,16.44S629.372,237.766,627.7,244.035Z" transform="translate(-566.677 -158.218)" fill="#282f56" opacity="0.35"/>
      </g>
    </g>
    <path id="Path_596" data-name="Path 596" d="M357.186,372.494c0,2.926-24.521,5.294-54.893,5.294-30.233,0-54.893-2.369-54.893-5.294s24.521-5.294,54.893-5.294S357.186,369.568,357.186,372.494Z" transform="translate(97.284 144.392)" fill="#343b73" opacity="0.14"/>
    <path id="Path_597" data-name="Path 597" d="M515.486,367.894c0,2.926-24.521,5.294-54.893,5.294-30.233,0-54.893-2.369-54.893-5.294s24.521-5.294,54.893-5.294S515.486,364.968,515.486,367.894Z" transform="translate(159.531 142.583)" fill="#343b73" opacity="0.14"/>
    <g id="Group_239" data-name="Group 239" transform="translate(546.115 257.93)">
      <path id="Path_598" data-name="Path 598" d="M455.158,191.7l5.573,15.047a6.29,6.29,0,0,1-3.762,8.22l-1.951.7.836,11.006-15.326,1.115-2.229-30.93Z" transform="translate(-373.765 -182.549)" fill="#f7d3a9"/>
      <path id="Path_599" data-name="Path 599" d="M456.67,185.505s-3.065-1.951-6.827,3.065-12.539,1.672-15.465,7.941-.7,13.654,3.2,19.366l2.786,4.458,7.8-.557s3.344-7.663,1.951-9.753c0,0-8.638-1.254-5.991-5.852s6.827,1.951,6.827,1.951l2.229-.279-2.647-8.638s7.663-1.533,8.638-6.409c.842-5.014-2.5-5.293-2.5-5.293Z" transform="translate(-375.834 -185.132)" fill="#343b73"/>
      <path id="Path_600" data-name="Path 600" d="M432.984,294.5l1.951,22.292a80.843,80.843,0,0,1-.7,19.226L425.6,391.329h4.876L446.5,348.7a82.842,82.842,0,0,0,5.155-24.66l1.672-29.4H432.984Z" transform="translate(-378.759 -142.126)" fill="#fbc4b6"/>
      <path id="Path_601" data-name="Path 601" d="M443.9,288.8l3.9,28.282a129.787,129.787,0,0,1,1.811,24.381L448.358,395.1l4.18-1.672,8.638-34.97A127.469,127.469,0,0,0,464.1,314.85l-1.811-26.05H443.9Z" transform="translate(-371.563 -144.367)" fill="#fbc4b6"/>
      <path id="Path_602" data-name="Path 602" d="M446.765,223.81s-13.236-3.065-10.171,16.719,6.548,30.372,6.548,30.372-23.267,26.889-16.161,62.834l1.811,20.062h48.345l-6.13-95.018,1.533-1.811a12.819,12.819,0,0,0,2.786-10.867l-2.369-12.121,32.462-5.016,26.332-22.849-6.13-5.016-21.6,16.022Z" transform="translate(-378.747 -178.853)" fill="#343b73"/>
      <path id="Path_603" data-name="Path 603" d="M462.227,192.758c-4.6,5.294-7.245,11.7-1.811,16.022a5.627,5.627,0,0,1,2.09,2.368c.279.557,3.483,1.254,3.483,1.811-.418,6.966-4.18,14.072-4.6,21.038-.139,2.786-.418,5.573-1.811,7.941-2.09,3.344-6.269,4.737-9.2,7.384-3.2,2.786-5.016,6.827-7.8,10.171-4.319,4.876-10.589,7.663-17.137,8.5a32.41,32.41,0,0,1-23.128-5.712A25.38,25.38,0,0,1,392,241.1c.557-11.842,11.006-21.734,22.57-24.242,4.876-.975,10.031-.975,14.768-2.229,4.876-1.254,9.753-4.319,11.146-9.056.836-2.647.418-5.573,1.533-8.22,0,0,2.786-10.867,20.62-7.8" transform="translate(-391.979 -183.608)" fill="#343b73"/>
      <path id="Path_604" data-name="Path 604" d="M431.966,363.8s8.917,1.393,9.335,3.344c.418,1.811-16.3-.975-16.3-.975l.279-2.09" transform="translate(-378.995 -114.876)" fill="#343b73"/>
      <path id="Path_605" data-name="Path 605" d="M451.537,363.6s10.867.557,11.424,2.368c.7,1.811-16.161,1.393-16.161,1.393v-2.09" transform="translate(-370.423 -114.954)" fill="#343b73"/>
      <g id="Group_232" data-name="Group 232" transform="translate(52.275 113.211)">
        <path id="Line_10" data-name="Line 10" d="M0,0,42.493,5.155" transform="translate(0 0.013)" fill="#222742"/>
        <g id="Group_231" data-name="Group 231">
          <path id="Path_606" data-name="Path 606" d="M471.993,271.559c0,.139-9.613-.836-21.316-2.229S429.5,266.543,429.5,266.4s9.613.836,21.316,2.229C462.519,270.165,471.993,271.419,471.993,271.559Z" transform="translate(-429.5 -266.39)" fill="#222742"/>
        </g>
      </g>
      <g id="Group_233" data-name="Group 233" transform="translate(64.396 89.365)">
        <path id="Path_607" data-name="Path 607" d="M450.042,249.31a30.253,30.253,0,0,1-5.852,1.393,32.647,32.647,0,0,1-5.991.7,30.252,30.252,0,0,1,5.852-1.393,32.639,32.639,0,0,1,5.991-.7Z" transform="translate(-438.2 -249.275)" fill="#222742"/>
      </g>
      <g id="Group_234" data-name="Group 234" transform="translate(66.903 92.553)">
        <path id="Path_608" data-name="Path 608" d="M451.006,253.287a26.458,26.458,0,0,1-5.573-.418c-3.065-.418-5.434-.975-5.434-1.254a26.461,26.461,0,0,1,5.573.418C448.5,252.59,451.006,253.008,451.006,253.287Z" transform="translate(-440 -251.562)" fill="#222742"/>
      </g>
      <g id="Group_235" data-name="Group 235" transform="translate(78.735 53.316)">
        <path id="Path_609" data-name="Path 609" d="M472.745,223.4a15.987,15.987,0,0,1-3.483.836c-2.229.418-5.294.975-8.638,1.533s-6.409.975-8.638,1.254a29.164,29.164,0,0,0-3.483.836c-.139-.139,1.115-.975,3.344-1.393s5.294-.975,8.638-1.533,6.409-.975,8.638-1.254c2.229-.14,3.622-.279,3.622-.279Z" transform="translate(-448.492 -223.4)" fill="#222742"/>
      </g>
      <path id="Path_610" data-name="Path 610" d="M478.879,223.173c2.647-3.483,6.966-5.155,11.285-5.573a57.814,57.814,0,0,1-4.458,3.762c-.279.279-.7.836-1.115.975-.279.139-.557,0-.975.139-1.811.418-3.483.418-5.016.836" transform="translate(-357.918 -172.365)" fill="#222742"/>
      <g id="Group_236" data-name="Group 236" transform="translate(57 40.916)">
        <path id="Path_611" data-name="Path 611" d="M446.557,214.5c.139,0,.139,1.672-.836,4.319-.975,2.508-2.508,5.852-4.319,9.613a52.712,52.712,0,0,1-5.573,8.917,28.36,28.36,0,0,1-2.926,3.2c-.139-.139.975-1.393,2.508-3.483a75.374,75.374,0,0,0,5.294-8.917q2.336-4.686,4.458-9.474a38.751,38.751,0,0,0,1.394-4.175Z" transform="translate(-432.892 -214.5)" fill="#222742"/>
      </g>
      <g id="Group_238" data-name="Group 238" transform="translate(84.297 120.33)">
        <path id="Path_612" data-name="Path 612" d="M452.981,271.5a385.033,385.033,0,0,0,1.811,55.311" transform="translate(-452.402 -271.5)" fill="#222742"/>
        <g id="Group_237" data-name="Group 237">
          <path id="Path_613" data-name="Path 613" d="M455.014,326.95l-.418-2.09c-.139-1.393-.418-3.344-.7-5.852-.557-5.016-.975-11.982-1.254-19.644s-.139-14.629,0-19.644c.139-2.508.139-4.6.279-5.991s.139-2.229.279-2.229a9.317,9.317,0,0,1,0,2.229v5.991c0,5.016,0,11.982.279,19.644s.7,14.49,1.115,19.505c.139,2.368.279,4.458.418,5.991l0,2.09Z" transform="translate(-452.484 -271.5)" fill="#222742"/>
        </g>
      </g>
      <path id="Path_614" data-name="Path 614" d="M498.336,205.053c.975-3.483,2.229-7.245,4.876-9.753.836,1.254-.557,2.926,0,4.319,1.393-1.393,3.2-2.786,5.155-2.368a6.1,6.1,0,0,1-2.508,2.786c1.393-.7,3.065-1.393,4.6-.836-1.393,1.115-2.786,2.09-4.18,3.065a25.655,25.655,0,0,1,4.6-.418c.279.279-.139.7-.418.836a17.842,17.842,0,0,1-3.344,1.533c.7,0,1.254.139,1.951.139.279,0,.557,0,.7.279s-.139.7-.418.975a9.512,9.512,0,0,1-3.065,1.254c-1.254.418-2.647.7-3.9,1.115H502.1a.3.3,0,0,1-.279-.279,8.708,8.708,0,0,0-4.319-2.647" transform="translate(-350.486 -181.134)" fill="#f7d3a9"/>
    </g>
    <g id="Group_252" data-name="Group 252" transform="translate(379.236 17.415)">
      <g id="Group_240" data-name="Group 240" transform="translate(518.976 41.936)">
        <path id="Path_615" data-name="Path 615" d="M653.756,42.6l3.344,5.852,5.852,3.344L657.1,55l-3.344,5.852L650.552,55,644.7,51.8l5.852-3.344Z" transform="translate(-644.7 -42.6)" fill="#f9f9f9"/>
      </g>
      <g id="Group_241" data-name="Group 241" transform="translate(0 32.741)">
        <path id="Path_616" data-name="Path 616" d="M281.4,36l3.2,5.852,5.991,3.344L284.6,48.4l-3.2,5.991L278.2,48.4l-6-3.2,5.991-3.344Z" transform="translate(-272.2 -36)" fill="#f9f9f9"/>
      </g>
      <g id="Group_242" data-name="Group 242" transform="translate(237.266 144.338)">
        <path id="Path_617" data-name="Path 617" d="M456.432,116.1l4.876,9.056,9.056,5.016-9.056,4.876-4.876,9.056-5.016-9.056-8.917-4.876,8.917-5.016Z" transform="translate(-442.5 -116.1)" fill="#f9f9f9"/>
      </g>
      <g id="Group_245" data-name="Group 245" transform="translate(30.79 73.702)">
        <g id="Group_244" data-name="Group 244">
          <g id="Group_243" data-name="Group 243">
            <path id="Path_618" data-name="Path 618" d="M318.4,65.4a.431.431,0,0,1-.139.279,4.635,4.635,0,0,0-.418.836,30.958,30.958,0,0,0-1.533,3.065c-1.393,2.647-3.344,6.409-5.852,11.006-4.18,2.368-9.335,5.155-15.047,8.359v-.557c4.6,2.508,9.613,5.294,15.047,8.22h.139v.139c2.647,4.737,5.434,9.753,8.22,15.047h-.7v-.139l.139-.279.279-.418.557-.975c.418-.7.7-1.254,1.115-1.951l2.09-3.762c1.393-2.508,2.786-5.016,4.04-7.384v-.139h.139c5.294-2.926,10.449-5.712,15.047-8.22v.557q-8.568-4.807-15.047-8.359c-2.508-4.737-4.458-8.359-5.852-11.006a20.66,20.66,0,0,1-1.533-3.065l-.418-.836a1.722,1.722,0,0,0-.279-.418s.139.279.557.975.975,1.672,1.672,2.926c1.533,2.647,3.622,6.409,6.27,11.006l-.139-.139c4.319,2.368,9.335,5.016,15.047,8.22l.557.279-.557.279c-4.6,2.508-9.613,5.294-15.047,8.22l.139-.139c-1.254,2.368-2.647,4.876-4.04,7.384l-2.09,3.762c-.418.7-.7,1.254-1.115,1.951l-.557.975-.279.418-.139.279v.139h-.7c-2.786-5.294-5.573-10.31-8.22-15.047l.139.139c-5.434-2.926-10.449-5.712-15.047-8.22l-.557-.279.557-.279c5.712-3.065,10.867-5.852,15.047-8.22l-.139.139q3.091-5.528,6.27-11.006,1.045-1.881,1.672-2.926A1.969,1.969,0,0,0,318.4,65.4Z" transform="translate(-294.3 -65.4)" fill="#f9f9f9"/>
          </g>
        </g>
      </g>
      <g id="Group_246" data-name="Group 246" transform="translate(362.378 186.553)">
        <path id="Path_619" data-name="Path 619" d="M541.635,146.4l3.344,6.13,6.13,3.344-6.13,3.344-3.344,6.13-3.344-6.13-5.991-3.344,5.991-3.344Z" transform="translate(-532.3 -146.4)" fill="#f9f9f9"/>
      </g>
      <g id="Group_247" data-name="Group 247" transform="translate(182.93 201.042)">
        <path id="Path_620" data-name="Path 620" d="M407.958,156.8l1.672,2.926,2.926,1.533-2.926,1.672-1.672,2.926-1.533-2.926-2.926-1.672,2.926-1.533Z" transform="translate(-403.5 -156.8)" fill="#f9f9f9"/>
      </g>
      <g id="Group_248" data-name="Group 248" transform="translate(492.783)">
        <path id="Path_621" data-name="Path 621" d="M630.358,12.5l1.672,2.926,2.926,1.672L632.03,18.63l-1.672,2.926-1.533-2.926L625.9,17.1l2.926-1.672Z" transform="translate(-625.9 -12.5)" fill="#f9f9f9"/>
      </g>
      <g id="Group_249" data-name="Group 249" transform="translate(139.044 60.187)">
        <path id="Path_622" data-name="Path 622" d="M376.6,55.7l1.533,2.926,2.926,1.672L378.13,61.83l-1.53,2.926-1.672-2.926L372,60.3l2.926-1.672Z" transform="translate(-372 -55.7)" fill="#f9f9f9"/>
      </g>
      <g id="Group_250" data-name="Group 250" transform="translate(81.782 342.594)">
        <path id="Path_623" data-name="Path 623" d="M340.1,258.4l3.2,5.852,5.991,3.344-5.991,3.2-3.2,5.852-3.2-5.852-5.991-3.2,5.991-3.344Z" transform="translate(-330.9 -258.4)" fill="#f9f9f9"/>
      </g>
      <g id="Group_251" data-name="Group 251" transform="translate(162.45 362.378)">
        <path id="Path_624" data-name="Path 624" d="M393.258,272.6l1.672,2.926,2.926,1.672-2.926,1.533-1.672,2.926-1.533-2.926L388.8,277.2l2.926-1.672Z" transform="translate(-388.8 -272.6)" fill="#f9f9f9"/>
      </g>
    </g>
    <g id="Group_265" data-name="Group 265" transform="translate(353.534)">
      <g id="Group_255" data-name="Group 255" transform="translate(345.241 105.049)">
        <g id="Group_254" data-name="Group 254">
          <g id="Group_253" data-name="Group 253">
            <path id="Path_625" data-name="Path 625" d="M554.143,127.925v-3.762c0-2.508,0-6.13-.139-10.589,0-9.2-.139-22.152-.139-37.756l.279.279H501.9l.418-.418v52.107l-.279-.279c15.6,0,28.561.139,37.756.139,4.6,0,8.081,0,10.588.139h3.483l.279.139h-3.762c-2.508,0-5.991,0-10.588.139-9.2,0-22.292.139-37.9.139h-.279V75.818l.418-.418h52.525v.279c0,15.6-.139,28.7-.139,37.9,0,4.458,0,8.081-.139,10.589v3.483C554.282,127.785,554.282,127.925,554.143,127.925Z" transform="translate(-501.553 -75.4)" fill="#f9f9f9"/>
          </g>
        </g>
      </g>
      <g id="Group_258" data-name="Group 258" transform="translate(187.667 117.867)">
        <g id="Group_257" data-name="Group 257">
          <g id="Group_256" data-name="Group 256">
            <path id="Path_626" data-name="Path 626" d="M414.293,110.235v-1.951c0-1.254,0-3.065-.139-5.155,0-4.458-.139-10.728-.139-18.251l.279.279H388.937l.418-.418v25.5l-.279-.279c7.523,0,13.793.139,18.251.139,2.229,0,3.9,0,5.155.139-1.254,0-2.926,0-5.155.139-4.6,0-10.867.139-18.53.139h-.279v-25.5l.418-.418h25.635v.279c0,7.523-.139,13.932-.139,18.53,0,2.09,0,3.9-.139,5.155v1.672Z" transform="translate(-388.453 -84.6)" fill="#f9f9f9"/>
          </g>
        </g>
      </g>
      <g id="Group_261" data-name="Group 261" transform="translate(74.537)">
        <g id="Group_260" data-name="Group 260">
          <g id="Group_259" data-name="Group 259">
            <path id="Path_627" data-name="Path 627" d="M359.843,52.525V48.763c0-2.508,0-6.13-.139-10.589,0-9.2-.139-22.152-.139-37.756l.279.279H307.6l.418-.418V52.385l-.279-.279c15.6,0,28.561.139,37.756.139,4.6,0,8.081,0,10.589.139h3.483a.432.432,0,0,0,.279.139h-3.762c-2.508,0-5.991,0-10.589.139-9.2,0-22.292.139-37.9.139h-.279V.418l.42-.418h52.525V.279c0,15.743-.139,28.7-.139,37.9,0,4.458,0,8.081-.139,10.589v3.483Z" transform="translate(-307.253)" fill="#f9f9f9"/>
          </g>
        </g>
      </g>
      <g id="Group_264" data-name="Group 264" transform="translate(0 179.669)">
        <g id="Group_263" data-name="Group 263">
          <g id="Group_262" data-name="Group 262">
            <path id="Path_628" data-name="Path 628" d="M273.6,148.8a12.068,12.068,0,0,0-.139-1.533c0-.975,0-2.368-.139-4.04,0-3.483-.139-8.359-.139-14.072l.279.279h-19.5l.418-.418v19.505H254.1c5.712,0,10.589.139,14.072.139a34.05,34.05,0,0,1,4.04.139H273.6a11.359,11.359,0,0,0-1.393.139c-.975,0-2.368,0-3.9.139-3.483,0-8.5.139-14.211.139h-.279V129.434l.418-.418H274.02v.279c0,5.852-.139,10.728-.139,14.211a30.433,30.433,0,0,1-.139,3.9,4.947,4.947,0,0,1-.142,1.394Z" transform="translate(-253.753 -128.959)" fill="#f9f9f9"/>
          </g>
        </g>
      </g>
    </g>
    <g id="Group_286" data-name="Group 286" transform="translate(678.465 343.032)">
      <g id="Group_271" data-name="Group 271" transform="translate(35.688 30.747)">
        <g id="Group_266" data-name="Group 266">
          <path id="Path_629" data-name="Path 629" d="M529.183,362.628c6.548,2.229,14.35,1.672,19.227-3.344a17.2,17.2,0,0,0,2.926-19.366c-1.533-3.065-4.04-5.852-3.9-9.2a11.133,11.133,0,0,1,1.951-5.016c1.951-2.926,4.6-5.434,6.409-8.359,1.811-3.065,2.926-6.827,1.533-10.031-2.786-6.27-12.678-6.548-15.6-12.818-1.393-2.926-.836-6.409-.557-9.613.279-3.9.139-7.941-1.672-11.424-1.811-3.344-5.852-5.852-9.613-5.016-4.458.975-6.827,5.991-8.5,10.31-1.115,2.926-2.229,5.712-3.344,8.638-3.065,7.941-6.13,16.579-4.04,24.939,1.672,6.687,6.409,12.121,10.31,17.833.7,1.115,1.533,2.229,1.393,3.622-.139,1.951-2.229,3.344-4.319,3.762-1.951.418-4.18.418-5.852,1.533-2.09,1.254-3.065,3.9-2.926,6.409a13.011,13.011,0,0,0,2.786,6.687c-.005-.135,6.543,7.946,13.788,10.454Z" transform="translate(-512.591 -268.284)" fill="#a0cfef"/>
        </g>
        <g id="Group_267" data-name="Group 267" transform="translate(21.748 35.411)">
          <path id="Path_630" data-name="Path 630" d="M528.2,293.7v59.63" transform="translate(-528.2 -293.7)" fill="#a0cfef"/>
        </g>
        <g id="Group_268" data-name="Group 268" transform="translate(21.33 45.024)">
          <path id="Path_631" data-name="Path 631" d="M527.9,316.9c3.2-4.319,6.548-8.5,9.753-12.818a35.161,35.161,0,0,1,2.926-3.483" transform="translate(-527.9 -300.6)" fill="#a0cfef"/>
        </g>
        <g id="Group_269" data-name="Group 269" transform="translate(11.995 75.396)">
          <path id="Path_632" data-name="Path 632" d="M521.2,322.4a105.416,105.416,0,0,1,8.5,9.2,3.715,3.715,0,0,1,.975,1.951" transform="translate(-521.2 -322.4)" fill="#a0cfef"/>
        </g>
        <g id="Group_270" data-name="Group 270" transform="translate(12.831 33.878)">
          <path id="Path_633" data-name="Path 633" d="M521.8,292.6c2.647,3.622,5.712,9.892,8.5,13.932" transform="translate(-521.8 -292.6)" fill="#a0cfef"/>
        </g>
      </g>
      <g id="Group_285" data-name="Group 285">
        <g id="Group_272" data-name="Group 272">
          <path id="Path_634" data-name="Path 634" d="M509.58,374.51c8.917,3.065,19.644,2.229,26.193-4.6a23.339,23.339,0,0,0,3.9-26.332c-2.09-4.04-5.573-7.941-5.434-12.539a13.783,13.783,0,0,1,2.647-6.827c2.647-3.9,6.269-7.384,8.777-11.424s3.9-9.335,2.09-13.654c-3.762-8.5-17.276-8.917-21.316-17.415-1.951-4.04-1.115-8.638-.7-12.957.418-5.294.279-10.867-2.368-15.465-2.508-4.6-7.941-8.081-13.1-6.827-6.13,1.393-9.335,8.081-11.564,14.072-1.533,3.9-2.926,7.8-4.458,11.7-4.18,10.867-8.359,22.57-5.573,33.855,2.229,9.056,8.638,16.579,14.072,24.242.975,1.393,2.09,3.065,1.951,4.876-.279,2.786-3.065,4.458-5.852,5.016-2.647.557-5.573.557-7.941,2.09a9.386,9.386,0,0,0-3.9,8.638,18.036,18.036,0,0,0,3.762,9.056C490.911,360.16,499.688,371.166,509.58,374.51Z" transform="translate(-486.975 -246.215)" fill="#1661a5"/>
        </g>
        <g id="Group_275" data-name="Group 275" transform="translate(29.153 48.185)">
          <g id="Group_274" data-name="Group 274">
            <g id="Group_273" data-name="Group 273">
              <path id="Path_635" data-name="Path 635" d="M508.318,361.886c-.139,0-.418-18.112-.418-40.543s.139-40.543.418-40.543c.139,0,.418,18.112.418,40.543C508.736,343.634,508.6,361.886,508.318,361.886Z" transform="translate(-507.9 -280.8)" fill="#222742"/>
            </g>
          </g>
        </g>
        <g id="Group_278" data-name="Group 278" transform="translate(29.001 61.407)">
          <g id="Group_277" data-name="Group 277">
            <g id="Group_276" data-name="Group 276">
              <path id="Path_636" data-name="Path 636" d="M525.219,290.3c0,.139-1.115,1.115-2.647,3.2s-3.622,4.876-5.991,7.941-4.458,5.852-6.13,7.8a20.527,20.527,0,0,1-2.647,3.065,27.1,27.1,0,0,1,2.229-3.483c1.393-2.09,3.622-4.876,5.991-7.941s4.458-5.852,6.13-7.8C523.965,291.14,525.219,290.164,525.219,290.3Z" transform="translate(-507.79 -290.291)" fill="#222742"/>
            </g>
          </g>
        </g>
        <g id="Group_281" data-name="Group 281" transform="translate(16.471 102.784)">
          <g id="Group_280" data-name="Group 280">
            <g id="Group_279" data-name="Group 279">
              <path id="Path_637" data-name="Path 637" d="M511.758,335.051a5.86,5.86,0,0,1-.279-.7,6.8,6.8,0,0,0-1.115-1.672c-1.254-1.393-2.786-3.344-4.737-5.294-3.762-4.18-6.966-7.245-6.827-7.384a15.466,15.466,0,0,1,2.368,1.811,60.37,60.37,0,0,1,5.016,5.155c1.811,2.09,3.483,4.04,4.6,5.573a5.713,5.713,0,0,1,1.115,1.951,1.442,1.442,0,0,1-.141.56Z" transform="translate(-498.797 -319.989)" fill="#222742"/>
            </g>
          </g>
        </g>
        <g id="Group_284" data-name="Group 284" transform="translate(17.59 46.095)">
          <g id="Group_283" data-name="Group 283">
            <g id="Group_282" data-name="Group 282">
              <path id="Path_638" data-name="Path 638" d="M511.164,298.248c-.139.139-3.065-4.04-5.991-9.335-1.533-2.647-2.926-5.016-3.9-6.827-.975-1.672-1.672-2.786-1.672-2.786a13.16,13.16,0,0,1,2.09,2.508q2.194,3.278,4.18,6.688c1.393,2.508,2.786,4.876,3.9,6.827a26.634,26.634,0,0,1,1.393,2.925Z" transform="translate(-499.6 -279.3)" fill="#222742"/>
            </g>
          </g>
        </g>
      </g>
    </g>
    <g id="Group_307" data-name="Group 307" transform="translate(453.481 404.43)">
      <g id="Group_292" data-name="Group 292">
        <g id="Group_287" data-name="Group 287">
          <path id="Path_639" data-name="Path 639" d="M342.083,384.628c6.548,2.229,14.49,1.672,19.226-3.344a17.206,17.206,0,0,0,2.926-19.366c-1.533-3.065-4.04-5.852-3.9-9.2a11.134,11.134,0,0,1,1.951-5.016c1.951-2.926,4.6-5.434,6.409-8.359,1.811-3.065,2.926-6.827,1.533-10.031-2.786-6.27-12.678-6.548-15.6-12.818-1.393-2.926-.836-6.409-.557-9.613.279-3.9.139-7.941-1.672-11.424-1.811-3.344-5.852-5.852-9.613-5.016-4.458.975-6.827,5.991-8.5,10.31-1.115,2.926-2.229,5.712-3.344,8.638-3.065,7.941-6.13,16.579-4.04,24.939,1.672,6.687,6.409,12.121,10.31,17.833.7,1.115,1.533,2.229,1.393,3.622-.139,1.951-2.229,3.344-4.319,3.762-1.951.418-4.18.418-5.852,1.533-2.09,1.254-3.065,3.9-2.926,6.409a13.011,13.011,0,0,0,2.786,6.687C328.29,374.039,334.7,382.12,342.083,384.628Z" transform="translate(-325.491 -290.284)" fill="#a0cfef"/>
        </g>
        <g id="Group_288" data-name="Group 288" transform="translate(21.608 35.411)">
          <path id="Path_640" data-name="Path 640" d="M341,315.7v59.63" transform="translate(-341 -315.7)" fill="#a0cfef"/>
        </g>
        <g id="Group_289" data-name="Group 289" transform="translate(21.329 45.024)">
          <path id="Path_641" data-name="Path 641" d="M340.8,338.9c3.2-4.319,6.548-8.5,9.753-12.818a35.169,35.169,0,0,1,2.926-3.483" transform="translate(-340.8 -322.6)" fill="#a0cfef"/>
        </g>
        <g id="Group_290" data-name="Group 290" transform="translate(11.995 75.396)">
          <path id="Path_642" data-name="Path 642" d="M334.1,344.4a105.425,105.425,0,0,1,8.5,9.2,3.715,3.715,0,0,1,.975,1.951" transform="translate(-334.1 -344.4)" fill="#a0cfef"/>
        </g>
        <g id="Group_291" data-name="Group 291" transform="translate(12.831 33.878)">
          <path id="Path_643" data-name="Path 643" d="M334.7,314.6c2.647,3.622,5.712,9.892,8.5,13.932" transform="translate(-334.7 -314.6)" fill="#a0cfef"/>
        </g>
      </g>
      <g id="Group_306" data-name="Group 306" transform="translate(18.006 19.854)">
        <g id="Group_293" data-name="Group 293">
          <path id="Path_644" data-name="Path 644" d="M382.281,375.82c7.663-4.18,15.465-8.638,21.038-15.326a9.909,9.909,0,0,0,2.647-4.876,4.965,4.965,0,0,0-1.811-5.016,5.751,5.751,0,0,0-4.319-.557,39.667,39.667,0,0,0-9.892,2.508,50.748,50.748,0,0,0,10.449-15.883c.7-1.811,1.254-4.18-.279-5.294a3.2,3.2,0,0,0-1.951-.557c-8.359-.975-15.883,5.294-21.316,11.7a124.142,124.142,0,0,0,2.09-34.413c-.139-1.393-.418-3.065-1.811-3.483a4.02,4.02,0,0,0-2.508.418c-6.548,3.2-11.146,9.474-13.932,16.3s-3.762,14.072-4.737,21.316a83.611,83.611,0,0,0-9.335-21.038,2.837,2.837,0,0,0-.836-.975c-.7-.279-1.533.279-2.09.975-5.294,6.13-5.991,15.047-4.737,23.128A56.327,56.327,0,0,0,349.679,370.1c2.09,2.786,5.294,8.081,11.982,8.081Z" transform="translate(-338.415 -304.534)" fill="#1661a5"/>
        </g>
        <g id="Group_296" data-name="Group 296" transform="translate(22.271 18.189)">
          <g id="Group_295" data-name="Group 295">
            <g id="Group_294" data-name="Group 294">
              <path id="Path_645" data-name="Path 645" d="M364.571,317.6a12.052,12.052,0,0,1-.7,2.229c-.418,1.393-1.115,3.344-1.811,5.852a174.314,174.314,0,0,0-4.737,19.784,171.021,171.021,0,0,0-2.368,20.2c-.139,2.647-.279,4.737-.279,6.13a14.98,14.98,0,0,1-.139,2.229,15,15,0,0,1-.139-2.229v-6.13a144.37,144.37,0,0,1,2.229-20.341,139.11,139.11,0,0,1,5.016-19.784q1.254-3.762,2.09-5.852c.42-1.388.7-2.223.838-2.088Z" transform="translate(-354.4 -317.589)" fill="#222742"/>
            </g>
          </g>
        </g>
        <g id="Group_299" data-name="Group 299" transform="translate(22.55 39.938)">
          <g id="Group_298" data-name="Group 298">
            <g id="Group_297" data-name="Group 297">
              <path id="Path_646" data-name="Path 646" d="M380.1,333.2a8.176,8.176,0,0,1-.975,1.393c-.836.975-1.811,2.229-2.926,3.622-2.508,3.065-5.852,7.245-9.335,12.121s-6.548,9.335-8.777,12.539c-.975,1.533-1.811,2.786-2.508,3.9a7.131,7.131,0,0,1-.975,1.393s.279-.557.7-1.533c.557-.975,1.393-2.368,2.368-4.04,2.09-3.344,5.016-7.941,8.638-12.678,3.622-4.876,6.966-9.056,9.613-11.982,1.254-1.533,2.368-2.647,3.065-3.483A5.456,5.456,0,0,1,380.1,333.2Z" transform="translate(-354.6 -333.2)" fill="#222742"/>
            </g>
          </g>
        </g>
        <g id="Group_302" data-name="Group 302" transform="translate(23.107 53.87)">
          <g id="Group_301" data-name="Group 301">
            <g id="Group_300" data-name="Group 300">
              <path id="Path_647" data-name="Path 647" d="M387.741,343.2a.61.61,0,0,1,.139.418,2.223,2.223,0,0,1-.418,1.115,6.274,6.274,0,0,1-1.393,1.254,11.8,11.8,0,0,1-1.951,1.393,69.4,69.4,0,0,1-11.982,6.687,127.73,127.73,0,0,0-12.26,5.991c-3.065,1.672-4.876,2.926-4.876,2.926a14.751,14.751,0,0,1,1.115-.975c.836-.557,1.951-1.393,3.483-2.368,3.065-1.811,7.384-3.9,12.26-6.13A82.326,82.326,0,0,0,383.84,347.1a23.64,23.64,0,0,0,1.951-1.393,6.079,6.079,0,0,0,1.393-1.115c.7-.692.416-1.392.557-1.392Z" transform="translate(-355 -343.2)" fill="#222742"/>
            </g>
          </g>
        </g>
        <g id="Group_305" data-name="Group 305" transform="translate(8.478 39.241)">
          <g id="Group_304" data-name="Group 304">
            <g id="Group_303" data-name="Group 303">
              <path id="Path_648" data-name="Path 648" d="M358.572,365.859s-.557,0-1.115-.836-.975-2.09-1.672-3.483c-1.254-3.065-3.065-7.245-4.876-11.842s-3.483-8.917-4.6-11.982c-.557-1.533-.975-2.786-1.393-3.622a3.458,3.458,0,0,1-.418-1.393,12.865,12.865,0,0,1,.7,1.254,35.438,35.438,0,0,1,1.533,3.622c1.254,3.065,3.065,7.245,4.876,11.842s3.483,8.917,4.6,11.982c.557,1.533.975,2.786,1.393,3.622C358.014,365.58,358.572,365.719,358.572,365.859Z" transform="translate(-344.5 -332.7)" fill="#222742"/>
            </g>
          </g>
        </g>
      </g>
    </g>
  </g>
</svg>
